<svg id="Capa_1" enable-background="new 0 0 512 512" height="512" viewBox="0 0 512 512" width="512" xmlns="http://www.w3.org/2000/svg"><g><g><g id="Light_Rain_8_"><g><g><path d="m112.744 425.81h72.235v29.98h-72.235z" fill="#66e6ff" transform="matrix(.357 -.934 .934 .357 -316.042 422.643)"/></g></g><g><path d="m92.472 332.065h64.204v29.969h-64.204z" fill="#66e6ff" transform="matrix(.356 -.935 .935 .356 -244.089 339.979)"/></g><g><g><path d="m265.6 412.45-9.6 25.501-15.901 41.999-28.198-10.8 25.799-67.5 18.3 7.2z" fill="#66e6ff"/></g></g><g><path d="m182.472 332.065h64.204v29.969h-64.204z" fill="#66e6ff" transform="matrix(.356 -.935 .935 .356 -186.114 424.089)"/></g><g><g><path d="m292.744 425.81h72.235v29.98h-72.235z" fill="#4dc3ff" transform="matrix(.357 -.934 .934 .357 -200.245 590.803)"/></g></g><g><path d="m272.472 332.065h64.204v29.969h-64.204z" fill="#4dc3ff" transform="matrix(.356 -.935 .935 .356 -128.139 508.198)"/></g><g><path d="m362.472 332.065h64.204v29.969h-64.204z" fill="#4dc3ff" transform="matrix(.356 -.935 .935 .356 -70.164 592.308)"/></g></g><g id="Cloud_13_"><g><g><g><g><path d="m434.801 153.249c-6.601-43.2-43.801-76.199-88.801-76.199-16.8 0-32.999 4.799-47.1 13.5-10.8-17.7-25.499-32.4-42.9-42.599-17.701-10.201-38.401-15.901-60-15.901-66.301 0-120 53.699-120 120v1.199c-42.599 7.202-76 44.401-76 88.801 0 49.501 41.499 90 91 90h330c49.501 0 91-40.499 91-90 0-45-33.999-82.2-77.199-88.801z" fill="#4a696f"/></g></g></g></g></g><path d="m512 242.05c0 49.501-41.499 90-91 90h-165v-284.099c17.401 10.199 32.1 24.899 42.9 42.599 14.101-8.701 30.3-13.5 47.1-13.5 45 0 82.2 32.999 88.801 76.199 43.2 6.601 77.199 43.801 77.199 88.801z" fill="#384949"/></g><path d="m265.6 412.45-9.6 25.501v-29.101z" fill="#4dc3ff"/></g></svg>